HIERARCHY
ROOT base
{
	OFFSET 0.000000 0.000000 0.000000
	CHANNELS 6 Xposition Yposition Zposition Xrotation Yrotation Zrotation
	JOINT torso
	{
		OFFSET 0.000000 0.000000 0.251014
		CHANNELS 3 Xrotation Yrotation Zrotation
		End Site
		{
			OFFSET -0.000000 -0.194736 0.000000
		}
	}
	JOINT lower.tail
	{
		OFFSET -0.000000 0.200728 0.242026
		CHANNELS 6 Xposition Yposition Zposition Xrotation Yrotation Zrotation
		JOINT upper.tail
		{
			OFFSET 0.000000 0.107854 0.134817
			CHANNELS 3 Xrotation Yrotation Zrotation
			End Site
			{
				OFFSET 0.000000 -0.278623 0.014980
			}
		}
	}
}
MOTION
Frames: 20
Frame Time: 0.041667
0.000000 0.000000 0.000000 -0.000000 0.000000 -0.000000 13.363782 -0.000000 0.000000 -0.000000 0.200728 0.242026 -0.000000 -0.000000 0.000000 -0.000001 -0.000000 0.000000 
0.000000 0.000000 0.000000 -0.000000 0.000000 -0.000000 13.363782 -0.000000 0.000000 -0.000000 0.200728 0.242026 2.344740 0.000000 -0.000000 -2.295341 -0.000000 -0.000000 
0.000000 0.000000 0.000000 -0.000000 0.000000 -0.000000 13.363782 -0.000000 0.000000 -0.000000 0.200728 0.242026 9.605982 0.000000 -0.000000 -9.392001 0.000000 -0.000000 
0.000000 0.000000 0.000000 -0.000000 0.000000 -0.000000 13.363782 -0.000000 0.000000 -0.000000 0.200728 0.242026 21.908605 0.000000 -0.000000 -21.381304 0.000000 -0.000000 
0.000000 0.000000 0.000000 -0.000000 0.000000 -0.000000 13.363782 -0.000000 0.000000 -0.000000 0.200728 0.242026 38.395355 0.000000 -0.000000 -37.401354 0.000000 -0.000000 
0.000000 0.000000 0.000000 -0.000000 0.000000 -0.000000 13.363782 -0.000000 0.000000 -0.000000 0.200728 0.242026 56.564871 0.000000 -0.000000 -55.034635 0.000000 -0.000000 
0.000000 0.000000 0.000000 -0.000000 0.000000 -0.000000 13.363782 -0.000000 0.000000 -0.000000 0.200728 0.242026 73.016963 0.000000 -0.000000 -71.022336 0.000000 -0.000000 
0.000000 0.000000 0.000000 -0.000000 0.000000 -0.000000 13.363782 -0.000000 0.000000 -0.000000 0.200728 0.242026 85.271927 -0.000000 -0.000000 -82.967052 0.000000 -0.000000 
0.000000 0.000000 0.000000 -0.000000 0.000000 -0.000000 13.363782 -0.000000 0.000000 -0.000000 0.200728 0.242026 92.495419 -0.000000 -0.000000 -90.028218 0.000000 -0.000000 
0.000000 0.000000 0.000000 -0.000000 0.000000 -0.000000 13.363782 -0.000000 0.000000 -0.000000 0.200728 0.242026 94.825832 -0.000000 -0.000000 -92.310089 -0.000000 0.000000 
0.000000 0.000000 0.000000 -0.000000 0.000000 -0.000000 13.363782 -0.000000 0.000000 -0.000000 0.200728 0.242026 92.942749 -0.000000 -0.000000 -90.466108 0.000000 -0.000000 
0.000000 0.000000 0.000000 -0.000000 0.000000 -0.000000 13.363782 -0.000000 0.000000 -0.000000 0.200728 0.242026 87.121385 -0.000000 -0.000000 -84.773323 0.000000 -0.000000 
0.000000 0.000000 0.000000 -0.000000 0.000000 -0.000000 13.363782 -0.000000 0.000000 -0.000000 0.200728 0.242026 77.197052 0.000000 -0.000000 -75.092391 0.000000 -0.000000 
0.000000 0.000000 0.000000 -0.000000 0.000000 -0.000000 13.363782 -0.000000 0.000000 -0.000000 0.200728 0.242026 63.519530 0.000000 -0.000000 -61.788487 0.000000 -0.000000 
0.000000 0.000000 0.000000 -0.000000 0.000000 -0.000000 13.363782 -0.000000 0.000000 -0.000000 0.200728 0.242026 47.469408 0.000000 -0.000000 -46.207951 0.000000 -0.000000 
0.000000 0.000000 0.000000 -0.000000 0.000000 -0.000000 13.363782 -0.000000 0.000000 -0.000000 0.200728 0.242026 31.406583 0.000000 -0.000000 -30.615582 0.000000 -0.000000 
0.000000 0.000000 0.000000 -0.000000 0.000000 -0.000000 13.363782 -0.000000 0.000000 -0.000000 0.200728 0.242026 17.698147 0.000000 -0.000000 -17.282800 0.000000 -0.000000 
0.000000 0.000000 0.000000 -0.000000 0.000000 -0.000000 13.363782 -0.000000 0.000000 -0.000000 0.200728 0.242026 7.739430 0.000000 -0.000000 -7.569631 0.000000 -0.000000 
0.000000 0.000000 0.000000 -0.000000 0.000000 -0.000000 13.363782 -0.000000 0.000000 -0.000000 0.200728 0.242026 1.892525 0.000000 -0.000000 -1.852909 -0.000000 -0.000000 
0.000000 0.000000 0.000000 -0.000000 0.000000 -0.000000 13.363782 -0.000000 0.000000 -0.000000 0.200728 0.242026 -0.000000 -0.000000 0.000000 -0.000001 -0.000000 0.000000 
